# Blender v2.76 (sub 0) OBJ File: ''
# www.blender.org
mtllib ramp.mtl
o Cube_Cube.002
v -3.058339 0.033330 -1.869716
v -3.058339 2.772851 -1.869716
v 0.681092 0.033330 -1.869715
v 0.681092 0.760808 -1.869715
v -3.058339 0.033330 1.869715
v -3.058339 2.772851 1.869715
v 0.681092 0.033330 1.869716
v 0.681092 0.760808 1.869716
v 6.508882 0.033330 -1.869716
v 6.508882 2.772851 -1.869716
v 10.248313 0.033330 -1.869715
v 10.248313 0.760808 -1.869715
v 6.508882 0.033330 1.869715
v 6.508882 2.772851 1.869715
v 10.248313 0.033330 1.869715
v 10.248313 0.760808 1.869715
vt 1.0000 -0.2965
vt 1.0000 -0.4911
vt 0.0000 -0.4911
vt 1.0000 0.7035
vt 1.0000 0.5089
vt 0.0000 0.5089
vt 0.0000 0.7035
vt -1.0000 1.2415
vt -1.0000 0.5089
vt -1.0000 0.2415
vt -1.0000 -0.4911
vt 0.0000 -0.4911
vt 0.0000 1.0000
vt 1.0000 1.0000
vt 1.0000 0.0000
vt 0.0000 1.0000
vt -1.0000 1.0000
vt -1.0000 0.0000
vt 0.0000 0.2415
vt 0.0000 0.7035
vt 0.0000 0.5089
vt 0.0000 0.2415
vt 0.0000 0.0000
vt 0.0000 0.0000
vt 1.0000 -0.2965
vt 1.0000 -0.4911
vt 0.0000 -0.4911
vt 1.0000 0.7035
vt 1.0000 0.5089
vt 0.0000 0.5089
vt 0.0000 0.7035
vt -1.0000 1.2415
vt -1.0000 0.5089
vt -1.0000 0.2415
vt -1.0000 -0.4911
vt 0.0000 -0.4911
vt 0.0000 1.0000
vt 1.0000 1.0000
vt 1.0000 0.0000
vt 0.0000 1.0000
vt -1.0000 1.0000
vt -1.0000 0.0000
vt 0.0000 0.2415
vt 0.0000 0.7035
vt 0.0000 0.5089
vt 0.0000 0.2415
vt 0.0000 0.0000
vt 0.0000 0.0000
vn 0.0000 -0.0000 -1.0000
vn 1.0000 -0.0000 0.0000
vn -0.0000 0.0000 1.0000
vn -1.0000 0.0000 -0.0000
vn 0.0000 -1.0000 0.0000
vn 0.4738 0.8806 0.0000
usemtl Material.003
s off
f 4/1/1 3/2/1 1/3/1
f 8/4/2 7/5/2 3/6/2
f 8/7/3 6/8/3 5/9/3
f 2/10/4 1/11/4 5/12/4
f 3/13/5 7/14/5 5/15/5
f 8/16/6 4/17/6 2/18/6
f 2/19/1 4/1/1 1/3/1
f 4/20/2 8/4/2 3/6/2
f 7/21/3 8/7/3 5/9/3
f 6/22/4 2/10/4 5/12/4
f 1/23/5 3/13/5 5/15/5
f 6/24/6 8/16/6 2/18/6
f 12/25/1 11/26/1 9/27/1
f 16/28/2 15/29/2 11/30/2
f 16/31/3 14/32/3 13/33/3
f 10/34/4 9/35/4 13/36/4
f 11/37/5 15/38/5 13/39/5
f 16/40/6 12/41/6 10/42/6
f 10/43/1 12/25/1 9/27/1
f 12/44/2 16/28/2 11/30/2
f 15/45/3 16/31/3 13/33/3
f 14/46/4 10/34/4 13/36/4
f 9/47/5 11/37/5 13/39/5
f 14/48/6 16/40/6 10/42/6
