# Blender v2.76 (sub 0) OBJ File: ''
# www.blender.org
mtllib ball.mtl
o Cube.001
v -0.934764 0.578764 -0.578764
v -0.934764 -0.578764 -0.578764
v -0.934764 -0.578764 0.578764
v -0.578764 0.578764 -0.934764
v -0.934764 0.578764 0.578764
v -0.578764 -0.578764 0.934764
v 0.578764 -0.934764 -0.578764
v 0.934764 -0.578764 -0.578764
v 0.934764 -0.578764 0.578764
v 0.578764 0.578764 -0.934764
v 0.578764 -0.578764 -0.934764
v -0.578764 -0.578764 -0.934764
v 0.934764 0.578764 0.578764
v 0.578764 0.934764 -0.578764
v 0.934764 0.578764 -0.578764
v 0.578764 0.578764 0.934764
v 0.578764 -0.578764 0.934764
v 0.578764 -0.934764 0.578764
v -0.578764 0.578764 0.934764
v -0.578764 -0.934764 -0.578764
v -0.578764 -0.934764 0.578764
v -0.578764 0.934764 -0.578764
v -0.578764 0.934764 0.578764
v 0.578764 0.934764 0.578764
vt 0.7454 0.2546
vt 0.2546 0.2546
vt 0.2546 0.7454
vt 0.1037 0.2546
vt 0.1037 0.7454
vt 0.2546 0.7454
vt 0.1037 0.7454
vt 0.1037 0.2546
vt 0.2546 0.2546
vt 0.7454 0.2546
vt 0.8963 0.2546
vt 0.8963 0.7454
vt 0.7454 0.7454
vt 0.7454 0.2546
vt 0.2546 0.2546
vt 0.7454 0.7454
vt 0.2546 0.7454
vt 0.2546 0.2546
vt 0.7454 0.8963
vt 0.8963 0.7454
vt 0.8963 0.2546
vt 0.8963 0.7454
vt 0.7454 0.7454
vt 0.7454 0.1037
vt 0.7454 0.2546
vt 0.7454 0.1037
vt 0.2546 0.7454
vt 0.2546 0.2546
vt 0.7454 0.7454
vt 0.2546 0.1037
vt 0.2546 0.1037
vt 0.2546 0.8963
vt 0.2546 0.8963
vt 0.2546 0.7454
vt 0.2546 0.2546
vt 0.7454 0.8963
vt 0.8963 0.2546
vt 0.7454 0.2546
vt 0.7454 0.7454
vt 0.2546 0.7454
vt 0.1037 0.7454
vt 0.7454 0.7454
vt 0.7454 0.2546
vt 0.1037 0.2546
vn -1.0000 0.0000 0.0000
vn -0.7071 0.0000 -0.7071
vn -0.7071 -0.0000 0.7071
vn 0.7071 -0.7071 -0.0000
vn -0.0000 0.0000 -1.0000
vn 1.0000 -0.0000 0.0000
vn 0.5774 0.5774 -0.5774
vn 0.7071 -0.0000 0.7071
vn 0.5774 -0.5774 -0.5774
vn 0.7071 0.0000 -0.7071
vn 0.5774 -0.5774 0.5774
vn 0.0000 -0.0000 1.0000
vn 0.0000 -1.0000 -0.0000
vn 0.0000 -0.7071 -0.7071
vn -0.0000 -0.7071 0.7071
vn -0.5774 0.5774 -0.5774
vn -0.5774 0.5774 0.5774
vn -0.7071 0.7071 0.0000
vn 0.0000 0.7071 0.7071
vn 0.7071 0.7071 0.0000
vn 0.5774 0.5774 0.5774
vn -0.7071 -0.7071 -0.0000
vn -0.5774 -0.5774 0.5774
vn -0.5774 -0.5774 -0.5774
vn 0.0000 1.0000 0.0000
vn -0.0000 0.7071 -0.7071
usemtl Material.002
s off
f 1/1/1 2/2/1 3/3/1
f 2/4/2 1/5/2 4/6/2
f 5/7/3 3/8/3 6/9/3
f 7/10/4 8/11/4 9/12/4
f 10/13/5 11/14/5 12/15/5
f 13/16/6 9/17/6 8/18/6
f 14/19/7 15/20/7 10/13/7
f 9/21/8 13/22/8 16/23/8
f 7/24/9 11/14/9 8/11/9
f 15/20/10 8/11/10 11/14/10
f 17/25/11 18/26/11 9/21/11
f 19/27/12 6/9/12 17/25/12
f 20/28/13 7/10/13 18/29/13
f 7/24/14 20/30/14 12/15/14
f 21/31/15 18/26/15 17/25/15
f 4/6/16 1/5/16 22/32/16
f 5/7/17 19/27/17 23/33/17
f 5/7/18 23/34/18 22/35/18
f 24/36/19 23/33/19 19/27/19
f 15/37/20 14/38/20 24/39/20
f 16/23/21 13/22/21 24/36/21
f 21/40/22 3/41/22 2/4/22
f 21/31/23 6/9/23 3/8/23
f 12/15/24 20/30/24 2/4/24
f 14/38/25 22/35/25 23/34/25
f 22/32/26 14/19/26 10/13/26
f 5/42/1 1/1/1 3/3/1
f 12/15/2 2/4/2 4/6/2
f 19/27/3 5/7/3 6/9/3
f 18/29/4 7/10/4 9/12/4
f 4/6/5 10/13/5 12/15/5
f 15/43/6 13/16/6 8/18/6
f 17/25/8 9/21/8 16/23/8
f 10/13/10 15/20/10 11/14/10
f 16/23/12 19/27/12 17/25/12
f 21/40/13 20/28/13 18/29/13
f 11/14/14 7/24/14 12/15/14
f 6/9/15 21/31/15 17/25/15
f 1/44/18 5/7/18 22/35/18
f 16/23/19 24/36/19 19/27/19
f 13/22/20 15/37/20 24/39/20
f 20/28/22 21/40/22 2/4/22
f 24/39/25 14/38/25 23/34/25
f 4/6/26 22/32/26 10/13/26
